<svg width="200" height="200" viewBox="0 0 200 200" fill="none" xmlns="http://www.w3.org/2000/svg">
<path d="M53.2432 30C53.2432 27.2386 55.4817 25 58.2432 25H134.854C137.616 25 139.854 27.2386 139.854 30V53.2428H53.2432V30Z" fill="white"/>
<path d="M53.2432 163.097C53.2432 165.858 55.4817 168.097 58.2432 168.097H114.143C116.904 168.097 119.143 165.858 119.143 163.097V139.854H53.2432V163.097Z" fill="white"/>
<path d="M139.855 53.2428H163.098C165.859 53.2428 168.098 55.4813 168.098 58.2428V114.143C168.098 116.904 165.859 119.143 163.098 119.143H139.855V53.2428Z" fill="white"/>
<path d="M53.2432 53.2428H30.0004C27.239 53.2428 25.0004 55.4813 25.0004 58.2428V134.854C25.0004 137.615 27.239 139.854 30.0004 139.854H53.2432V53.2428Z" fill="white"/>
<path d="M103.03 123C97.515 117.485 97.515 108.544 103.03 103.029C108.545 97.5145 117.486 97.5145 123 103.029L164.273 144.302C169.788 149.817 169.788 158.758 164.273 164.273C158.758 169.787 149.817 169.787 144.302 164.273L103.03 123Z" fill="#64C967"/>
<circle cx="7.73226" cy="7.73226" r="7.73226" transform="matrix(-1 0 0 1 122.464 107)" fill="white"/>
</svg>
